<svg id="easy_to_learn" data-name="easy to learn" xmlns="http://www.w3.org/2000/svg" viewBox="0 0 670 670"><defs><style>.cls-1{fill:#5e6d72;}.cls-2,.cls-3{fill:#48f06d;}.cls-3{stroke:#48f06d;}.cls-4{fill:#7a8b91;}</style></defs><title>icolearn</title><path d="M320,393.56c82.27,51,189-27.52,189-124.4s-84.6-175.43-189-122.1c-104.37-53.33-189,25.21-189,122.1S237.73,444.58,320,393.56Z"/><path class="cls-1" d="M608.13,441.17l.9.06.89.09.88.13.87.15.86.2.84.22.83.26.82.29.8.32.78.35.77.38.75.41.73.44.72.46.69.49.68.52.65.54.64.56.61.59.59.61.56.63.54.66.52.67.49.7.46.72.44.73.41.75.38.77.35.78.32.8.29.82.25.83.23.84.19.86.16.87.13.88.09.89,0,.9,0,.91v22.09H77l-.91,0-.9.06-.89.09-.88.12-.87.16-.86.2-.84.22-.83.26-.82.29-.8.32-.78.35-.77.38-.75.41-.74.44-.71.46-.7.49-.67.51-.66.54-.63.57-.61.59-.59.61-.56.63-.54.66-.52.67-.49.7-.46.71-.44.74-.41.75-.38.77-.35.78-.32.8-.29.82-.26.83-.22.84-.2.86-.16.87-.12.88-.09.89-.06.9,0,.91v66.28l0,.91.06.9.09.89.12.88.16.87.2.86.22.84.26.83.29.81.32.81.35.78.38.77.41.75.44.73.46.72.49.69.52.68.54.65.56.64.59.61.61.59.63.56.66.54.67.52.7.49.71.46.74.44.75.4.77.38.78.36.8.32.82.29.83.25.84.23.86.19.87.16.88.13.89.09.9,0,.91,0H629.31v22.1l0,.91,0,.9-.09.89-.13.88-.16.87-.19.85-.23.85-.25.83-.29.81-.32.8-.35.79-.38.77-.41.75-.44.73-.46.72-.49.69-.52.68-.54.65-.56.63-.59.62-.61.58-.64.57-.65.54-.68.51-.69.49-.72.47-.73.43-.75.41-.77.38-.78.35-.8.32-.82.29-.83.26-.84.23-.86.19-.87.16-.88.13-.89.09-.9.05-.91,0H32.78l-.91,0-.9-.05-.89-.09-.88-.13-.87-.16-.86-.19-.84-.23-.83-.26-.82-.29-.8-.32-.78-.35-.77-.38-.75-.41-.73-.43-.72-.47-.69-.49-.68-.51-.65-.54-.64-.57-.61-.58-.59-.62-.56-.63-.54-.65L15,631l-.49-.69-.46-.72-.44-.73-.41-.75-.38-.77-.35-.79-.32-.8-.29-.81-.25-.83-.23-.85-.19-.85-.16-.87-.13-.88-.09-.89,0-.9,0-.91V463.25l0-.91,0-.9.09-.89.13-.88.16-.87.19-.86.23-.84.25-.83.29-.82.32-.8.35-.78.38-.77.41-.75.44-.73.46-.72.49-.7.52-.67.54-.66.56-.63.59-.61.61-.59.64-.56.65-.54.68-.52.69-.49.72-.46.73-.44.75-.41.77-.38.78-.35.8-.32.82-.29.83-.26.84-.22.86-.2.87-.15.88-.13.89-.09.9-.06H608.13Z"/><path class="cls-2" d="M323.35,13.65a16.1,16.1,0,0,1,16.09,16.09V145.62a16.1,16.1,0,0,1-16.09,16.09h-.57a16.09,16.09,0,0,1-16.08-16.09V29.74a16.09,16.09,0,0,1,16.08-16.09Z"/><path class="cls-3" d="M238.9,76.34c61.87-6.41,93.51,10.43,98-6.41-27.81,0-40.56,4-81.68-46.06-49.63-21.8-93.52-18.93-98-2.09S189.27,63,238.9,76.34Z"/><path class="cls-2" d="M350.64,11.77c3.8,6.58,5.3,12.84,3.35,14L328.5,40.45c-1.95,1.13-6.62-3.3-10.42-9.88l-.24-.42c-3.8-6.58-5.3-12.83-3.35-14L340,1.47c1.95-1.12,6.62,3.3,10.42,9.88Z"/><path class="cls-4" d="M596.17,505.44c6.1,0,11.05,2.57,11.05,5.73h0c0,3.17-5,5.74-11.05,5.74H88c-6.1,0-11-2.57-11-5.74h0c0-3.16,5-5.73,11-5.73Z"/><path class="cls-4" d="M596.17,535.44c6.1,0,11.05,2.57,11.05,5.73h0c0,3.17-5,5.74-11.05,5.74H88c-6.1,0-11-2.57-11-5.74h0c0-3.16,5-5.73,11-5.73Z"/><path class="cls-4" d="M596.17,565.44c6.1,0,11.05,2.57,11.05,5.73h0c0,3.17-5,5.74-11.05,5.74H88c-6.1,0-11-2.57-11-5.74h0c0-3.16,5-5.73,11-5.73Z"/></svg>