<svg id="share" xmlns="http://www.w3.org/2000/svg" viewBox="0 0 660 660"><defs><style>.cls-1{fill:#8899fe;}.cls-2{fill:#eceeef;}</style></defs><title>icorealtime</title><path class="cls-1" d="M578.48,10.27l3.23.34,3.18.47,3.15.59,3.09.72,3,.84,3,.95,3,1.08L603,16.45l2.83,1.3,2.76,1.4,2.71,1.52L614,22.28,616.52,24,619,25.81l2.42,1.91,2.33,2L626,31.8,628.2,34l2.08,2.26,2,2.33L634.19,41,636,43.48l1.72,2.57,1.61,2.64,1.52,2.7,1.4,2.76,1.3,2.83,1.19,2.89,1.08,3,.95,3,.84,3.05.72,3.09.59,3.15.47,3.18.34,3.23.2,3.26.07,3.3V571.92l-.07,3.3-.2,3.26-.34,3.23-.47,3.18-.59,3.15-.72,3.09-.84,3-.95,3-1.08,3L643.55,603l-1.3,2.83-1.4,2.76-1.52,2.71L637.72,614,636,616.52,634.19,619l-1.91,2.42-2,2.33L628.2,626,626,628.2l-2.26,2.08-2.33,2L619,634.19,616.52,636,614,637.72l-2.63,1.61-2.71,1.52-2.76,1.4-2.83,1.3-2.89,1.19-3,1.08-3,.95-3,.84-3.09.72-3.15.59-3.18.47-3.23.34-3.26.2-3.3.07H88.08l-3.3-.07-3.26-.2-3.23-.34-3.18-.47L72,648.33l-3.09-.72-3.05-.84-3-.95-3-1.08L57,643.55l-2.83-1.3-2.76-1.4-2.7-1.52-2.64-1.61L43.48,636,41,634.19l-2.42-1.91-2.33-2L34,628.2,31.8,626l-2.08-2.26-2-2.33L25.81,619,24,616.52,22.28,614l-1.61-2.63-1.52-2.71-1.4-2.76L16.45,603l-1.19-2.89-1.08-3-.95-3-.84-3L11.67,588l-.59-3.15-.47-3.18-.34-3.23-.2-3.26-.07-3.3V88.08l.07-3.3.2-3.26.34-3.23.47-3.18L11.67,72l.72-3.09.84-3.05.95-3,1.08-3L16.45,57l1.3-2.83,1.4-2.76,1.52-2.7,1.61-2.64L24,43.48,25.81,41l1.91-2.42,2-2.33L31.8,34,34,31.8l2.26-2.08,2.33-2L41,25.81,43.48,24l2.57-1.72,2.64-1.61,2.7-1.52,2.76-1.4L57,16.45l2.89-1.19,3-1.08,3-.95,3.05-.84L72,11.67l3.15-.59,3.18-.47,3.23-.34,3.26-.2,3.3-.07H571.92l3.3.07ZM60,585.38H600V140H60ZM78.34,55l-3.67,1.55L71.32,58.6l-3,2.56-2.55,3-2.08,3.35-1.55,3.67-1,3.93-.34,4.14.34,4.15,1,3.93L63.71,91l2.08,3.35,2.55,3,3,2.55,3.35,2.08,3.67,1.55,3.93,1,4.14.34,4.14-.34,3.93-1,3.67-1.55,3.35-2.08,3-2.55,2.55-3L109.11,91l1.55-3.66,1-3.93.34-4.15-.34-4.14-1-3.93-1.55-3.67L107,64.13l-2.55-3-3-2.56-3.35-2.08L94.48,55l-3.93-1-4.14-.33L82.27,54Zm140,0-3.67,1.55-3.35,2.08-3,2.56-2.55,3-2.08,3.35-1.55,3.67-1,3.93-.34,4.14.34,4.15,1,3.93L203.71,91l2.08,3.35,2.55,3,3,2.55,3.35,2.08,3.67,1.55,3.93,1,4.14.34,4.14-.34,3.93-1,3.67-1.55,3.35-2.08,3-2.55,2.55-3L249.11,91l1.55-3.66,1-3.93.34-4.15-.34-4.14-1-3.93-1.55-3.67L247,64.13l-2.55-3-3-2.56-3.35-2.08L234.48,55l-3.93-1-4.14-.33-4.14.33Zm-70,0-3.67,1.55-3.35,2.08-3,2.56-2.55,3-2.08,3.35-1.55,3.67-1,3.93-.34,4.14.34,4.15,1,3.93L133.71,91l2.08,3.35,2.55,3,3,2.55,3.35,2.08,3.67,1.55,3.93,1,4.14.34,4.14-.34,3.93-1,3.67-1.55,3.35-2.08,3-2.55,2.55-3L179.11,91l1.55-3.66,1-3.93.34-4.15-.34-4.14-1-3.93-1.55-3.67L177,64.13l-2.55-3-3-2.56-3.35-2.08L164.48,55l-3.93-1-4.14-.33-4.14.33Z"/><path class="cls-2" d="M291.47,343.93l2.93,1.19,2.75,1.66,2.51,2.14.77.77-62.79,62.79-.85,1-.67,1.09-.47,1.17-.28,1.21-.1,1.24.1,1.24.28,1.21.47,1.17.67,1.09.85,1L265.76,452l1,.85,1.09.66L269,454l1.21.28,1.24.1,1.24-.1,1.21-.28,1.16-.48,1.1-.66,1-.85L340,389.23l.77.76,2.13,2.52,1.67,2.75,1.18,2.93.72,3,.23,3.11-.23,3.1-.72,3.05-1.18,2.93-1.67,2.75-2.13,2.51-62.53,62.53-2.52,2.14L272.94,485,270,486.2l-3,.71-3.11.24-3.1-.24-3.05-.71L254.78,485,252,483.35l-2.51-2.14-41.07-41.07-2.14-2.51-1.66-2.75L203.46,432l-.71-3.05-.24-3.11.24-3.1.71-3.05,1.19-2.93,1.66-2.75,2.14-2.51L271,348.92l2.52-2.14,2.75-1.66,2.93-1.19,3-.71,3.11-.24,3.11.24ZM402.29,233.12l2.93,1.19L408,236l2.51,2.14,41.07,41.07,2.14,2.51,1.66,2.75,1.19,2.93.71,3.05.24,3.1-.24,3.11-.71,3-1.19,2.93-1.66,2.75-2.14,2.52L389,370.39l-2.52,2.14-2.75,1.66-2.93,1.19-3,.71-3.11.24-3.11-.24-3-.71-2.93-1.19-2.75-1.66-2.51-2.14-.77-.76L422.18,307l.85-1,.67-1.1.47-1.16.28-1.22.1-1.23-.1-1.24-.28-1.21-.47-1.17L423,296.6l-.85-1-28.12-28.12-1-.86L392,266l-1.17-.47-1.21-.28-1.24-.1-1.24.1-1.21.28-1.16.47-1.1.66-1,.86L320,330.09l-.77-.77-2.13-2.51-1.67-2.75-1.18-2.93-.72-3.05-.23-3.1.23-3.11.72-3.05,1.18-2.92,1.67-2.75,2.13-2.52,62.53-62.52,2.52-2.14,2.75-1.66,2.92-1.19,3-.71,3.11-.24,3.1.24Z"/><path class="cls-2" d="M384.58,306.84a8.08,8.08,0,0,1,0,11.42l-96,96a8.08,8.08,0,0,1-11.42,0l-1.76-1.76a8.08,8.08,0,0,1,0-11.42l96-96a8.08,8.08,0,0,1,11.42,0Z"/></svg>