<svg id="lifehacker" xmlns="http://www.w3.org/2000/svg" viewBox="0 0 596.4 148.5" fill="#c3cdd5"><title>lifehacker</title><path d="M22.9,146.8H0V1.5L22.9,3Z"/><path d="M48.9,11.6A13.1,13.1,0,1,1,35.8,24.7,13.14,13.14,0,0,1,48.9,11.6ZM60.3,146.8H37.4V43.2l22.9,1.3Z"/><path d="M114.9,64V86.9H97.8v59.9H74.9V33c0-17.3,14.4-33,31.4-33,5.7,0,10.3,1.7,11.4,2.4l-.9,22H106.3a8.67,8.67,0,0,0-8.5,8.7v31l17.1-.1Z"/><path d="M124.2,73.2a31.45,31.45,0,1,1,62.9,0V95.3a11.33,11.33,0,0,1-11.4,11.4H147v10a8.71,8.71,0,0,0,8.7,8.7h22l.7,19.4-20.7,3.1c-19.9,3.3-33.6-13.8-33.6-31.2l.1-43.5ZM147,83.9h17.2V73.2a8.6,8.6,0,1,0-17.2,0Z"/><path d="M206.6,146.8V2.4h14.8V46.3c4.1-1.3,10.5-1.8,14.9-1.8,15.7,0,27.9,14.2,27.9,30.3v72.1H249.8V74.7a14.3,14.3,0,0,0-14.4-14.2h-14v86.3Z"/><path d="M318.2,72.3c0-8.3-3.9-14.9-14.4-13.8h.2c-5.9.2-13.5.9-19.7,1.3-.2-5.3-.4-7.4-.6-11.4A65.32,65.32,0,0,1,302,44.5c18.4-.4,30.6,14.6,30.6,30.6V119A28.81,28.81,0,0,1,304,148a29.15,29.15,0,0,1-29-29v-9c0-15.9,10.9-27.9,29-27.9a46.22,46.22,0,0,1,14.2,1.8Zm0,46.7V94.1H304a14.13,14.13,0,0,0-14.2,14.2V119a14.2,14.2,0,1,0,28.4,0Z"/><path d="M373.9,44.5a29,29,0,0,1,29,29v1.8c-5.7.2-10.3.2-14.6.4V73.5a14.43,14.43,0,0,0-14.4-14.2,14.21,14.21,0,0,0-14,14.2v46.1a14,14,0,0,0,14,14.2,14.2,14.2,0,0,0,14.4-13.7c7.2.6,14,.9,14.6.9a29.14,29.14,0,0,1-29,27.5,28.85,28.85,0,0,1-28.8-29V73.4A28.83,28.83,0,0,1,373.9,44.5Z"/><path d="M429.3,2.8V146.9H414.5V2.8Zm31.7,144L433,98c-2.8-4.8-2.8-5.3.6-11.1l24.7-41H475L447.1,93.1l30.1,53.7Z"/><path d="M480.3,73.6a28.9,28.9,0,1,1,57.8,0V96.3a7.32,7.32,0,0,1-7.4,7.4H495.1v15.7a14.3,14.3,0,0,0,14.2,14.4h18.6c.2,4.8.4,8.1.7,11.4L510.9,148c-18.1,3.1-30.6-12.5-30.6-28.6V73.6Zm14.8,15.5h28.4V73.6a14.2,14.2,0,1,0-28.4,0V89.1Z"/><path d="M565.8,146.8H551V74.9c0-16,12.5-31,31-30.6A33.12,33.12,0,0,1,596.4,48c-.2,4.4-.4,8.1-.6,11.4l-16-.4c-7.7,0-14,8.3-14,15.9v71.9Z"/></svg>
