<svg id="net_magazine" data-name="net magazine" xmlns="http://www.w3.org/2000/svg" viewBox="0 0 640 640" fill="#c3cdd5"><title>Tavola disegno 1</title><path d="M331.9,256.1c-21.7,0-31,17.5-33.7,37.3H362C360.6,274.7,353.9,256.1,331.9,256.1Z"/><path d="M635.6,280.6,578,338.1h0l1.7-11.6,1.2-11.7.7-11.9.2-12-.2-12-.7-11.9-1.2-11.7L578,243.7l-2.1-11.4L573.4,221l-3-11.1L567,199l-3.8-10.7L559,177.8l-4.6-10.3-5-10.1-5.4-9.9-5.7-9.7-6.1-9.4-6.4-9.2-6.8-8.9-7.1-8.6-7.4-8.3-7.7-8-8-7.7-8.3-7.4-8.6-7.1L463,56.4,453.8,50l-9.4-6.1-9.7-5.7-9.9-5.4-10.1-5-10.3-4.6L393.9,19l-10.7-3.8-10.9-3.4-11.1-3L349.9,6.3,338.5,4.2,326.9,2.5,314.8,1,302.9.3l-12-.2-12,.2L267.1,1,255.4,2.2,243.8,3.9,232.4,6,221,8.5l-11.1,3L199,14.8l-10.7,3.8-10.5,4.2-10.3,4.6-10.1,5-9.9,5.4-9.7,5.7-9.4,6.1L119.2,56l-8.9,6.8-8.6,7.1-8.3,7.4-8,7.7-7.7,8-7.4,8.3-7.1,8.6-6.8,8.9L50,128l-6.1,9.4-5.7,9.7L32.8,157l-5,10.1-4.6,10.3L19,187.9l-3.8,10.7-3.4,10.9-3,11.1L6.3,231.9,4.2,243.3,2.5,254.9,1.3,266.6.6,278.5l-.2,12,.2,12,.7,11.9,1.2,11.7,1.7,11.6,2.1,11.4,2.5,11.3,3,11.1,3.4,10.9L19,393.1l4.2,10.5,4.6,10.3,5,10.1,5.4,9.9,5.7,9.7L50,453l6.4,9.2,6.8,8.9,7.1,8.6,7.4,8.3,7.7,8,8,7.7,8.3,7.4,8.6,7.1,8.9,6.8,9.2,6.4,9.4,6.1,9.7,5.7,9.9,5.4,10.1,5,10.3,4.6,10.5,4.2L199,567l10.9,3.4,11.1,3,11.3,2.5,11.4,2.1,11.6,1.7,11.7,1.2,11.9.7,12,.2,12-.2,11.9-.7,11.7-1.2,11.6-1.7h0l-59,59,4.3,4.3L639.9,284.8ZM245.1,388H163.3V355.9h22V279.2c0-13.1-4.3-20.5-17.7-20.5-14.4,0-28.7,8.8-40.1,18.3v78.9h22V388H67.7V355.9h22V262.4h-22V230.3h58.8V250c14-12.4,31.7-23.7,53.4-23.7,26.4,0,43.1,16.4,43.1,48.9v80.7h22V388ZM396,322.2H298.5c3.7,24.8,17.4,38.4,43.4,38.4,19.7,0,35.1-8,46.4-14.6v31.8A99.14,99.14,0,0,1,336.2,392c-50.7,0-75.8-35.1-75.8-82.9s25-82.9,70.8-82.9c45.4,0,66.1,35.1,66.1,78.5A105.43,105.43,0,0,1,396,322.2Zm116.8,64.3a118.21,118.21,0,0,1-34.4,5.5c-35.7,0-45.1-18.6-45.1-47.5V262.7h-25V230.2h25V190H471v40.2h39.4v32.5H471v79.6c0,15,8,17.9,19.4,17.9a64.14,64.14,0,0,0,22.4-4Z"/></svg>
