<svg id="product_hunt" data-name="product hunt" xmlns="http://www.w3.org/2000/svg" viewBox="0 0 1025.2 240" fill="#c3cdd5"><title>producthunt</title><path d="M136,84H102v36h34a18,18,0,0,0,0-36Z"/><path d="M120,0A120,120,0,1,0,240,120,120,120,0,0,0,120,0Zm16,144H102v36H78V60h58a42,42,0,0,1,0,84Z"/><path d="M320,160V80h36.8c17.1,0,26.4,11.5,26.4,25.3s-9.4,25.2-26.4,25.2h-20V160Zm46.1-54.7c0-6.6-5.1-10.6-11.7-10.6H336.7v21.1h17.7C361,115.8,366.1,111.8,366.1,105.3Z"/><path d="M393.3,160V101.7h15v7.7c4.1-5,11.1-9.1,18.2-9.1v14.6a21.79,21.79,0,0,0-4.1-.4c-5,0-11.6,2.8-14,6.5v39Z"/><path d="M432.1,130.1c0-16.1,11.3-29.8,30-29.8,18.9,0,30.2,13.7,30.2,29.8S481,160,462.1,160C443.4,160,432.1,146.2,432.1,130.1Zm44.7,0c0-8.8-5.2-16.5-14.6-16.5s-14.5,7.7-14.5,16.5c0,9,5.2,16.6,14.5,16.6S476.8,139,476.8,130.1Z"/><path d="M542.7,160v-8.7a21.83,21.83,0,0,1-17.6,8.7c-14.3,0-25.2-10.8-25.2-29.9,0-18.5,10.7-29.8,25.2-29.8a21.67,21.67,0,0,1,17.6,8.7V80h15.1v80Zm0-19.8V120.1c-2.5-3.8-7.9-6.5-12.8-6.5-8.6,0-14.5,6.7-14.5,16.5s5.9,16.6,14.5,16.6C534.8,146.7,540.2,144,542.7,140.2Z"/><path d="M611,160v-8.6a27.18,27.18,0,0,1-20,8.6c-12.5,0-18.4-6.8-18.4-17.9V101.7h15v34.5c0,7.9,4.1,10.5,10.5,10.5a16.81,16.81,0,0,0,13-6.5V101.7h15V160Z"/><path d="M637.2,130.1c0-17.4,12.7-29.8,30.2-29.8,11.7,0,18.7,5.1,22.5,10.3l-9.8,9.2a13.73,13.73,0,0,0-12-6.1c-9.1,0-15.4,6.6-15.4,16.5s6.4,16.6,15.4,16.6a14.28,14.28,0,0,0,12-6.2l9.8,9.2c-3.8,5.2-10.8,10.4-22.5,10.4C649.9,160,637.2,147.6,637.2,130.1Z"/><path d="M702.8,144.3V114.7h-9.4V101.6h9.4V86.1h15v15.6h11.5v13.1H717.8v25.6c0,3.7,1.9,6.4,5.2,6.4,2.2,0,4.4-.8,5.2-1.8l3.2,11.4c-2.2,2-6.2,3.7-12.5,3.7C708.3,160,702.8,154.6,702.8,144.3Z"/><path d="M825.1,160V125.5H788V160H771.3V80H788v30.9h37.1V80H842v80Z"/><path d="M895.5,160v-8.6a27.18,27.18,0,0,1-20,8.6c-12.5,0-18.4-6.8-18.4-17.9V101.7h15v34.5c0,7.9,4.1,10.5,10.5,10.5a16.81,16.81,0,0,0,13-6.5V101.7h15V160Z"/><path d="M963.7,160V124.2c0-7.9-4.1-10.6-10.5-10.6a16.72,16.72,0,0,0-13,6.6V160h-15V101.7h15V109a26.8,26.8,0,0,1,19.9-8.7c12.6,0,18.6,7.1,18.6,18.1V160Z"/><path d="M996.7,144.3V114.7h-9.4V101.6h9.4V86.1h15v15.6h11.5v13.1h-11.5v25.6c0,3.7,1.9,6.4,5.2,6.4,2.2,0,4.4-.8,5.2-1.8l3.2,11.4c-2.2,2-6.2,3.7-12.5,3.7C1002.2,160,996.7,154.6,996.7,144.3Z"/></svg>
