<svg id="tech_republic" data-name="tech republic" xmlns="http://www.w3.org/2000/svg" viewBox="0 0 247.2 58.9" fill="#c3cdd5"><title>tech</title><path d="M2.7,15.8,1.6,21.6A31.53,31.53,0,0,1,11.7,33.9a66.21,66.21,0,0,1,5,18.8L18.4,48a55.82,55.82,0,0,0-4.1-16.7C9.6,19.6,2.7,15.8,2.7,15.8Z"/><path d="M.9,25.1l-.9,5s6,3.5,10.1,12.4a62.16,62.16,0,0,1,4.4,16.4L16,54.8a62.07,62.07,0,0,0-4.5-16.4C6.9,28.2.9,25.1.9,25.1Z"/><path d="M10.7,20.2s2.8-8.5,9.8-8.3,9.7,6.1,16.2,5.5C46,16.5,52.4,4.5,52.4,4.5L51.5,0S45.7,10.6,36.6,10.9c-6.1.2-8.2-4.7-14.7-5.2-8.8-.6-12,9.3-12,9.3l.8,5.2Z"/><path d="M19.1,41.7s3.7-7.4,10.4-7.4c6.1.1,9.3,6.1,15.8,5.5,7.6-.6,12.3-11.3,12.3-11.3l-.9-3.9S52.7,33.7,45,34c-6.1.2-8-4.8-14.4-5.3-7.4-.6-11.3,7.1-11.3,7.1l-.2,5.9Z"/><path d="M79.3,13l-.1,4.5c-.2-.1-3.9-.1-6.4-.1-.4,4.8-.6,12.1-.7,16H65.5a150.74,150.74,0,0,0,.9-16c-2,0-4.2.1-6.4.1l.2-4.5Z"/><path d="M80.9,23.6a2.84,2.84,0,0,1,2.8-2.7c1.5,0,2.3.9,2.3,2.7Zm10.5,2.9a9,9,0,0,0,.2-2.3c0-4.3-2.8-6.7-7.9-6.7-8.2,0-8.9,7-8.9,8.6,0,6.1,4.3,7.7,9.3,7.7a24.83,24.83,0,0,0,5.4-.6l.7-4.4a20.54,20.54,0,0,1-5.4,1c-2.1,0-4.1-.9-4.1-3.3Z"/><path d="M106,22.6a13.44,13.44,0,0,0-4-.7,3.6,3.6,0,0,0-3.9,3.8c0,2.3,1.2,3.6,3.6,3.6a13.36,13.36,0,0,0,3.9-.7l-.8,4.6a18.16,18.16,0,0,1-4.6.6c-5.1,0-8-2.8-8-7.9,0-1.7.4-8.4,8.2-8.4a18,18,0,0,1,5.3.6l.3,4.5Z"/><path d="M113.9,12.5c-.1,1.2-.4,5.2-.6,7.4l.1.1c1.4-2,3-2.6,6-2.6s5.7,1.2,5.7,5c0,.8-.4,7-.4,10.9h-6.1c.2-2.7.4-5.5.4-8.2,0-1.5-.4-2.9-2.3-2.9a3.38,3.38,0,0,0-3.1,2.6,43.6,43.6,0,0,0-.8,8.5h-6.1c.4-3.9,1-13.3,1-20.8Z"/><path d="M133.3,16.9c-.3,5.5-.4,10.9-.5,16.4h-6.5a183.39,183.39,0,0,0,1-20.8h11c1.5,0,7.4.1,7.4,5.5,0,3.3-1.9,5-4.9,6.1,1.2,3.1,2.8,6.1,4.1,9.2H138c-1.1-3.9-2.6-7.8-4-11.7a7.57,7.57,0,0,0,1.5.1c1.8,0,3.9-.7,3.9-2.8s-2-2.1-3.5-2.1h-2.6Z"/><path d="M150.7,23.6a2.84,2.84,0,0,1,2.8-2.7c1.5,0,2.2.9,2.2,2.7Zm10.5,2.9a17.85,17.85,0,0,0,.2-2.3c0-4.3-2.8-6.7-7.9-6.7-8.3,0-9,7-9,8.6,0,6.1,4.3,7.7,9.3,7.7a24.83,24.83,0,0,0,5.4-.6l.8-4.4a20.53,20.53,0,0,1-5.5,1c-2,0-4.1-.9-4.1-3.3Z"/><path d="M168.2,21.9a18.1,18.1,0,0,1,2.3-.3c2.3,0,3.5,1.4,3.5,3.6,0,1.8-.9,4.2-3.1,4.2s-3-2-3-3.9c0-1.2.2-2.3.3-3.6Zm-.8,18.5c0-2.8.1-5.8.3-8.7a8.27,8.27,0,0,0,5.5,2c4.5,0,6.7-4.2,6.7-8.2,0-4.2-2.1-8.1-8.5-8.1a49.69,49.69,0,0,0-9.1.8c0,7.4-.4,14.8-1.1,22.2Z"/><path d="M192,31.3h0a6.46,6.46,0,0,1-5.5,2.4c-4.3,0-5.5-2.1-5.5-4.7,0-1,.6-8.1.6-11.2h6.1c-.1,2.8-.6,5.5-.6,8.2,0,1.5.5,2.8,2.3,2.8,1.5,0,2.4-1.2,2.8-2.6a61.91,61.91,0,0,0,.5-8.4h6.1c-.5,5.2-.7,10.4-.9,15.5H192v-2Z"/><path d="M205.8,21.9a16,16,0,0,1,2.3-.3c2.3,0,3.4,1.4,3.4,3.6,0,1.8-.9,4.2-3.1,4.2s-3-2-3-3.9c.1-1.2.2-2.3.4-3.6Zm-.8,9.5h0a6,6,0,0,0,5,2.3c5,0,7.4-4.2,7.4-8.8,0-4.9-2.8-7.5-7.7-7.5a10.87,10.87,0,0,0-1.8.1,9.66,9.66,0,0,0-1.8.3c.1-2.2.2-3.7.4-5.3h-6.2c-.1,6.9-.5,13.9-1,20.8H205V31.4Z"/><path d="M225.2,12.5c-.4,3.5-1,15.3-1.2,20.8h-6.2c.7-6.9.9-13.9,1.2-20.8Z"/><path d="M225.6,33.3c.5-4.7.7-9.3.8-15.5h6.3a134.75,134.75,0,0,0-.6,15.5Zm1-17.5.1-3.6h6.1l-.1,3.6Z"/><path d="M247.2,22.6a13.36,13.36,0,0,0-3.9-.7,3.55,3.55,0,0,0-3.9,3.8c0,2.3,1.2,3.6,3.6,3.6a13.36,13.36,0,0,0,3.9-.7l-.8,4.6a18.16,18.16,0,0,1-4.6.6c-5.1,0-8-2.8-8-7.9,0-1.7.4-8.4,8.2-8.4a18,18,0,0,1,5.3.6l.2,4.5Z"/></svg>
